# cube.obj
#
#Triangle t1 = Triangle (Vector (0, 1, 3.3), Vector(1, 0, 3.3), Vector(-1, 0, 3.3), Color(0, 0, 1));
#Triangle t2 = Triangle (Vector (0, 1.6, 3), Vector(1, 0.8, 3), Vector(-1, 0.8, 3), Color(0, 1, 0));
#Triangle t3 = Triangle (Vector (0, 0.5, 2.8), Vector(1, -1, 2.8), Vector(-1, -1, 2.8), Color(1, 0, 0));
#Triangle triangles[3] = {t1, t2, t3};
#Light light = Light(0.5, 0.5, 0.5, 0.5, 0.5, 0.5,false);

v  0.0  1.0  3.3
v  1.0  0.0  3.3
v  -1   0.0  3.3

v  0.0  1.6  3.0
v  1.0  0.8  3.0
v  -1   0.8  3.0

v  0.0  0.5  2.8
v  1.0  -1   2.8
v  -1   -1   2.8

vn  0.0  0.0  -1
vn  0.0  0.0  1.6
vn  0.0  0.0  2
 
f  1//1  2//1  3//1
f  4//2  6//2  5//2 
f  7//3  9//3  8//3 